<svg xmlns="http://www.w3.org/2000/svg" version="1.1" xmlns:xlink="http://www.w3.org/1999/xlink" xmlns:svgjs="http://svgjs.com/svgjs" width="1440" height="560" preserveAspectRatio="none" viewBox="0 0 1440 560"><g mask="url(&quot;#SvgjsMask1091&quot;)" fill="none"><rect width="1440" height="560" x="0" y="0" fill="rgba(22, 74, 65, 1)"></rect><path d="M 0,202 C 72,163.4 216,11 360,9 C 504,7 576,191.4 720,192 C 864,192.6 936,17.4 1080,12 C 1224,6.6 1368,134.4 1440,165L1440 560L0 560z" fill="rgba(77, 119, 78, 1)"></path><path d="M 0,392 C 72,402 216,448.6 360,442 C 504,435.4 576,352.8 720,359 C 864,365.2 936,471.6 1080,473 C 1224,474.4 1368,387.4 1440,366L1440 560L0 560z" fill="rgba(157, 200, 141, 1)"></path></g><defs><mask id="SvgjsMask1091"><rect width="1440" height="560" fill="#ffffff"></rect></mask></defs></svg>